<?xml version="1.0" encoding="utf-8"?>
<!-- Generator: Adobe Illustrator 24.1.2, SVG Export Plug-In . SVG Version: 6.00 Build 0)  -->
<svg version="1.1" id="Layer_1" xmlns="http://www.w3.org/2000/svg" xmlns:xlink="http://www.w3.org/1999/xlink" x="0px" y="0px"
	 viewBox="0 0 4000 4000" style="enable-background:new 0 0 4000 4000;" xml:space="preserve">
<style type="text/css">
	.st0{fill:#FFFFFF;stroke:#000000;stroke-miterlimit:10;}
	.st1{clip-path:url(#SVGID_2_);fill:url(#SVGID_3_);}
	.st2{clip-path:url(#SVGID_5_);fill:url(#SVGID_6_);}
	.st3{clip-path:url(#SVGID_8_);fill:url(#SVGID_9_);}
	.st4{clip-path:url(#SVGID_11_);fill:url(#SVGID_12_);}
	.st5{filter:url(#Adobe_OpacityMaskFilter);}
	.st6{fill:url(#SVGID_14_);}
	.st7{mask:url(#SVGID_13_);fill-rule:evenodd;clip-rule:evenodd;fill:#990038;}
	.st8{fill:none;stroke:#231916;stroke-width:0.5669;stroke-miterlimit:22.9256;}
	.st9{clip-path:url(#SVGID_16_);fill:url(#SVGID_17_);}
	.st10{clip-path:url(#SVGID_19_);fill:url(#SVGID_20_);}
	.st11{clip-path:url(#SVGID_22_);fill:url(#SVGID_23_);}
	.st12{clip-path:url(#SVGID_25_);fill:url(#SVGID_26_);}
	.st13{clip-path:url(#SVGID_28_);fill:url(#SVGID_29_);}
	.st14{clip-path:url(#SVGID_31_);fill:url(#SVGID_32_);}
	.st15{clip-path:url(#SVGID_34_);fill:url(#SVGID_35_);}
	.st16{clip-path:url(#SVGID_37_);fill:url(#SVGID_38_);}
	.st17{clip-path:url(#SVGID_40_);fill:url(#SVGID_41_);}
	.st18{clip-path:url(#SVGID_43_);fill:url(#SVGID_44_);}
	.st19{filter:url(#Adobe_OpacityMaskFilter_1_);}
	.st20{fill:url(#SVGID_46_);}
	.st21{mask:url(#SVGID_45_);fill-rule:evenodd;clip-rule:evenodd;fill:#102770;}
	.st22{fill:#231916;}
</style>
<rect x="-0.5" y="-0.5" class="st0" width="4000" height="4000"/>
<g>
	<g>
		<defs>
			<path id="SVGID_1_" d="M1540.56,2678.25c385.73-89.44,592.87-278.66,676.97-538.61c-118.32,16.18-171.82,42.79-223.63,52.31
				C1896.73,2430.11,1699.5,2590.53,1540.56,2678.25"/>
		</defs>
		<clipPath id="SVGID_2_">
			<use xlink:href="#SVGID_1_"  style="overflow:visible;"/>
		</clipPath>
		<linearGradient id="SVGID_3_" gradientUnits="userSpaceOnUse" x1="1982.7251" y1="2330.7644" x2="1307.2006" y2="2840.1157">
			<stop  offset="0" style="stop-color:#00478F"/>
			<stop  offset="1" style="stop-color:#29C4FF"/>
		</linearGradient>
		<rect x="1540.56" y="2139.64" class="st1" width="676.97" height="538.61"/>
	</g>
	<g>
		<defs>
			<path id="SVGID_4_" d="M1699.19,2837.78c352-181.32,506.42-415.56,524.18-688.2c-110.74,44.71-156.08,83.63-203.97,105.56
				C1983.62,2509.85,1831.76,2713.75,1699.19,2837.78"/>
		</defs>
		<clipPath id="SVGID_5_">
			<use xlink:href="#SVGID_4_"  style="overflow:visible;"/>
		</clipPath>
		<linearGradient id="SVGID_6_" gradientUnits="userSpaceOnUse" x1="2089.5769" y1="2322.4214" x2="1531.0989" y2="3067.877">
			<stop  offset="0" style="stop-color:#00478F"/>
			<stop  offset="1" style="stop-color:#29C4FF"/>
		</linearGradient>
		<rect x="1699.19" y="2149.58" class="st2" width="524.18" height="688.2"/>
	</g>
	<g>
		<defs>
			<path id="SVGID_7_" d="M1931.94,2902.02c243.14-224.75,315.24-448,268.64-671.66c-79.25,60.77-107.09,102.26-140.78,130.63
				C2087.88,2574.23,2011.06,2772.47,1931.94,2902.02"/>
		</defs>
		<clipPath id="SVGID_8_">
			<use xlink:href="#SVGID_7_"  style="overflow:visible;"/>
		</clipPath>
		<linearGradient id="SVGID_9_" gradientUnits="userSpaceOnUse" x1="2153.2004" y1="2318.186" x2="1988.543" y2="2959.8569">
			<stop  offset="0" style="stop-color:#00478F"/>
			<stop  offset="1" style="stop-color:#29C4FF"/>
		</linearGradient>
		<rect x="1931.94" y="2230.36" class="st3" width="315.24" height="671.66"/>
	</g>
	<g>
		<defs>
			<path id="SVGID_10_" d="M1071.98,1526.35c133.69-622.79,962.65,167.1,1084.05,401.22c0,0,269.14,533.3-69.78,951.96
				c224.69-462.98-147-662.17-477.11-779.91c-368.35-131.39-312.56-403.89-442.09-469.35c-64.06-32.37-132.12,0.04-168.58,65.54
				C988.79,1638.5,993.96,1594.26,1071.98,1526.35"/>
		</defs>
		<clipPath id="SVGID_11_">
			<use xlink:href="#SVGID_10_"  style="overflow:visible;"/>
		</clipPath>
		<linearGradient id="SVGID_12_" gradientUnits="userSpaceOnUse" x1="1627.6412" y1="1022.802" x2="1727.3246" y2="2114.3174">
			<stop  offset="0" style="stop-color:#FFCE4B"/>
			<stop  offset="1" style="stop-color:#D3226F"/>
		</linearGradient>
		<rect x="988.79" y="903.55" class="st4" width="1436.39" height="1975.98"/>
	</g>
	<defs>
		<filter id="Adobe_OpacityMaskFilter" filterUnits="userSpaceOnUse" x="998.47" y="1522.9" width="1184.85" height="1291.88">
			<feColorMatrix  type="matrix" values="1 0 0 0 0  0 1 0 0 0  0 0 1 0 0  0 0 0 1 0"/>
		</filter>
	</defs>
	<mask maskUnits="userSpaceOnUse" x="998.47" y="1522.9" width="1184.85" height="1291.88" id="SVGID_13_">
		<g class="st5">
			
				<linearGradient id="SVGID_14_" gradientUnits="userSpaceOnUse" x1="-417.2798" y1="2752.0798" x2="-1339.3319" y2="1550.907" gradientTransform="matrix(1 0 0 1 2282.2234 -226.2319)">
				<stop  offset="0" style="stop-color:#FFFFFF"/>
				<stop  offset="1" style="stop-color:#000000"/>
			</linearGradient>
			<rect x="998.47" y="1522.9" class="st6" width="1184.85" height="1291.88"/>
		</g>
	</mask>
	<path class="st7" d="M2114.49,2814.79c160.9-417.13-191.05-603.06-505.35-715.17c-368.35-131.39-312.56-403.89-442.09-469.35
		c-64.06-32.37-132.12,0.04-168.58,65.54c0,0,131.02-423.7,666.56,55.43C1665.04,1751.23,2408.6,2084.29,2114.49,2814.79"/>
	<path class="st8" d="M1226.83,1690.63c364.11,354.27,660.03-997.42,1674.34-857.07c-977.01,97.7-931.95,1222.78-1448.89,1186.55"/>
	<g>
		<defs>
			<path id="SVGID_15_" d="M1781.52,2153.92c79.92-197.39,60.72-347.06-27.67-464.45c-29.47,57.07-52.37,105.74-64.21,131.48
				C1742.5,1956.4,1778.48,2093.55,1781.52,2153.92"/>
		</defs>
		<clipPath id="SVGID_16_">
			<use xlink:href="#SVGID_15_"  style="overflow:visible;"/>
		</clipPath>
		<linearGradient id="SVGID_17_" gradientUnits="userSpaceOnUse" x1="1770.3477" y1="1873.1351" x2="1812.8314" y2="2269.8596">
			<stop  offset="0" style="stop-color:#00478F"/>
			<stop  offset="1" style="stop-color:#51F4E9"/>
		</linearGradient>
		<rect x="1689.65" y="1689.47" class="st9" width="171.8" height="464.45"/>
	</g>
	<g>
		<defs>
			<path id="SVGID_18_" d="M1933.57,2183.49c81.25-288.12,31.35-494.28-110.23-644.68c-32.38,84.28-56.88,155.81-69.45,193.6
				C1848.61,1913.52,1920.02,2099.6,1933.57,2183.49"/>
		</defs>
		<clipPath id="SVGID_19_">
			<use xlink:href="#SVGID_18_"  style="overflow:visible;"/>
		</clipPath>
		<linearGradient id="SVGID_20_" gradientUnits="userSpaceOnUse" x1="1870.5515" y1="1762.7417" x2="1959.3843" y2="2396.2314">
			<stop  offset="0" style="stop-color:#00478F"/>
			<stop  offset="1" style="stop-color:#29C4FF"/>
		</linearGradient>
		<rect x="1753.88" y="1538.8" class="st10" width="260.93" height="644.68"/>
	</g>
	<g>
		<defs>
			<path id="SVGID_21_" d="M2153.46,2176.16c43.16-328.28-44.21-546.01-223.09-688.14c-22.05,97.4-46.69,162.16-54.45,205.53
				C2008.38,1876.74,2125.3,2086.49,2153.46,2176.16"/>
		</defs>
		<clipPath id="SVGID_22_">
			<use xlink:href="#SVGID_21_"  style="overflow:visible;"/>
		</clipPath>
		<linearGradient id="SVGID_23_" gradientUnits="userSpaceOnUse" x1="1888.6464" y1="1538.212" x2="2206.5132" y2="2170.9761">
			<stop  offset="0" style="stop-color:#003780"/>
			<stop  offset="1" style="stop-color:#B222D3"/>
		</linearGradient>
		<rect x="1875.93" y="1488.02" class="st11" width="320.69" height="688.14"/>
	</g>
	<g>
		<defs>
			<path id="SVGID_24_" d="M2325.19,2166.19c59.24-373.43-72.18-593.89-322.92-721.97c-19.36,35.66-37.41,70.24-53.69,102.27
				C2124.81,1752.93,2292.54,2051.68,2325.19,2166.19"/>
		</defs>
		<clipPath id="SVGID_25_">
			<use xlink:href="#SVGID_24_"  style="overflow:visible;"/>
		</clipPath>
		<linearGradient id="SVGID_26_" gradientUnits="userSpaceOnUse" x1="2180.7981" y1="1814.7565" x2="2581.6448" y2="2082.4077">
			<stop  offset="0" style="stop-color:#4E046D"/>
			<stop  offset="1" style="stop-color:#FF8BC7"/>
		</linearGradient>
		<rect x="1948.57" y="1444.23" class="st12" width="435.85" height="721.97"/>
	</g>
	<g>
		<defs>
			<path id="SVGID_27_" d="M2656.18,2049.75c-71.62-430.01-308.4-603.66-644.9-629c-14.45,26.14-28.21,51.85-41.1,76.51
				C2239.54,1632.73,2575.1,1931.26,2656.18,2049.75"/>
		</defs>
		<clipPath id="SVGID_28_">
			<use xlink:href="#SVGID_27_"  style="overflow:visible;"/>
		</clipPath>
		<linearGradient id="SVGID_29_" gradientUnits="userSpaceOnUse" x1="2010.2382" y1="1463.3246" x2="2823.4866" y2="2193.3157">
			<stop  offset="0" style="stop-color:#4E046D"/>
			<stop  offset="1" style="stop-color:#FF8BC7"/>
		</linearGradient>
		<rect x="1970.18" y="1420.75" class="st13" width="686" height="629"/>
	</g>
	<g>
		<defs>
			<path id="SVGID_30_" d="M2950.03,1843.03c-219.68-441.03-529.06-564.39-896.08-497.07c-22.09,37.42-43.2,75.25-62.75,111.64
				C2341.44,1518.95,2818.37,1737.95,2950.03,1843.03"/>
		</defs>
		<clipPath id="SVGID_31_">
			<use xlink:href="#SVGID_30_"  style="overflow:visible;"/>
		</clipPath>
		<linearGradient id="SVGID_32_" gradientUnits="userSpaceOnUse" x1="2384.9133" y1="1517.1851" x2="2996.2332" y2="1828.5793">
			<stop  offset="0" style="stop-color:#B91C58"/>
			<stop  offset="1" style="stop-color:#F95C97"/>
		</linearGradient>
		<rect x="1991.2" y="1278.64" class="st14" width="958.83" height="564.39"/>
	</g>
	<g>
		<defs>
			<path id="SVGID_33_" d="M3088.06,1592.56c-287.92-404.27-615.43-475.98-970.41-348.39c-24.98,37.38-49.46,77.21-72.75,117.24
				C2401.37,1357.68,2936.61,1506.46,3088.06,1592.56"/>
		</defs>
		<clipPath id="SVGID_34_">
			<use xlink:href="#SVGID_33_"  style="overflow:visible;"/>
		</clipPath>
		<linearGradient id="SVGID_35_" gradientUnits="userSpaceOnUse" x1="2224.3782" y1="1290.7479" x2="3226.1851" y2="1477.641">
			<stop  offset="0" style="stop-color:#B91C58"/>
			<stop  offset="1" style="stop-color:#FF8BC7"/>
		</linearGradient>
		<rect x="2044.9" y="1116.58" class="st15" width="1043.16" height="475.98"/>
	</g>
	<g>
		<defs>
			<path id="SVGID_36_" d="M3029.59,1308.53c-291.15-295.59-570.87-308.99-846.93-153.78c-26.2,32.58-52.54,69.9-78.22,109.46
				C2391.64,1201.4,2887.79,1255.49,3029.59,1308.53"/>
		</defs>
		<clipPath id="SVGID_37_">
			<use xlink:href="#SVGID_36_"  style="overflow:visible;"/>
		</clipPath>
		<linearGradient id="SVGID_38_" gradientUnits="userSpaceOnUse" x1="2980.2805" y1="1226.4601" x2="2293.4785" y2="1106.101">
			<stop  offset="0" style="stop-color:#FFCE4B"/>
			<stop  offset="1" style="stop-color:#D3226F"/>
		</linearGradient>
		<rect x="2104.44" y="999.54" class="st16" width="925.14" height="308.99"/>
	</g>
	<g>
		<defs>
			<path id="SVGID_39_" d="M1910.28,1635.98c191.03-324.25,410.82-744.41,990.89-802.42c-591.47-81.84-938.66,343.67-1197.54,642.41
				c-185.07,213.57-325.01,362.34-476.79,214.66c50.34,84.03,75.04,222.67,225.44,329.48
				C1662.3,2034.83,1779.56,1857.86,1910.28,1635.98"/>
		</defs>
		<clipPath id="SVGID_40_">
			<use xlink:href="#SVGID_39_"  style="overflow:visible;"/>
		</clipPath>
		<linearGradient id="SVGID_41_" gradientUnits="userSpaceOnUse" x1="1782.8685" y1="2110.2549" x2="2204.0271" y2="1036.1697">
			<stop  offset="0" style="stop-color:#00478F"/>
			<stop  offset="1" style="stop-color:#C11FDA"/>
		</linearGradient>
		<rect x="1226.83" y="751.72" class="st17" width="1674.34" height="1283.11"/>
	</g>
	<g>
		<defs>
			<path id="SVGID_42_" d="M3090.56,1062.83c-309.01-219.3-579.04-116.31-579.04-116.31c-148.53,78.04-261.79,187.27-355.19,306.43
				C2288.62,1086.2,2928.09,1032.9,3090.56,1062.83"/>
		</defs>
		<clipPath id="SVGID_43_">
			<use xlink:href="#SVGID_42_"  style="overflow:visible;"/>
		</clipPath>
		<linearGradient id="SVGID_44_" gradientUnits="userSpaceOnUse" x1="2993.4546" y1="1084.7754" x2="2034.6646" y2="990.091">
			<stop  offset="0" style="stop-color:#FFCE4B"/>
			<stop  offset="1" style="stop-color:#D3226F"/>
		</linearGradient>
		<rect x="2156.33" y="843.53" class="st18" width="934.23" height="409.42"/>
	</g>
	<defs>
		<filter id="Adobe_OpacityMaskFilter_1_" filterUnits="userSpaceOnUse" x="1297.78" y="833.5" width="1603.39" height="1187.47">
			<feColorMatrix  type="matrix" values="1 0 0 0 0  0 1 0 0 0  0 0 1 0 0  0 0 0 1 0"/>
		</filter>
	</defs>
	<mask maskUnits="userSpaceOnUse" x="1297.78" y="833.5" width="1603.39" height="1187.47" id="SVGID_45_">
		<g class="st19">
			
				<linearGradient id="SVGID_46_" gradientUnits="userSpaceOnUse" x1="-1234.2349" y1="2579.3657" x2="355.6947" y2="1612.4377" gradientTransform="matrix(1 0 0 1 2422.353 -597.8843)">
				<stop  offset="0" style="stop-color:#FFFFFF"/>
				<stop  offset="1" style="stop-color:#000000"/>
			</linearGradient>
			<rect x="1297.78" y="833.5" class="st20" width="1603.39" height="1187.48"/>
		</g>
	</mask>
	<path class="st21" d="M1823.33,1538.8c-331.44,510.56-525.56,299.94-525.56,299.94c31.54,60.92,75.82,125.5,154.5,181.37
		c210.02,14.72,327.28-162.25,458.01-384.14c191.03-324.25,410.82-744.41,990.89-802.42
		C2225.91,825.5,1823.33,1538.8,1823.33,1538.8"/>
	<path class="st22" d="M2900.31,3293.12h16.18v-213.95h-20.14l-80.88,124.68l-81.8-124.68c-7.94,0-11.6,0-19.53,0v213.95h16.48
		v-190.09l82.41,125.29h5.49l81.8-125.29V3293.12z M2652.79,3079.16v132.77c0,91.56-131.24,91.87-131.24,0v-132.77h-16.18v132.77
		c0,112.01,163.59,111.71,163.59,0v-132.77H2652.79z M2464.17,3112.74c-21.06-31.44-47.61-36.32-78.13-36.32
		c-35.1,0-82.1,14.04-81.19,59.21c0,39.37,39.98,47.31,79.05,54.94c35.1,6.71,70.5,13.73,70.2,45.78
		c0,37.85-41.81,45.17-68.06,45.17c-26.25,0-59.82-12.82-72.94-38.76l-14.65,7.32c16.48,32.66,54.33,46.39,87.59,46.39
		c35.71,0,84.24-11.6,84.54-59.82c0-46.09-42.73-53.41-83.93-61.35c-36.01-6.71-65.31-13.12-65.31-40.29
		c0-34.18,39.68-43.34,64.7-43.34c24.11,0.31,49.14,3.97,64.7,29L2464.17,3112.74z M2206.27,3219.26c92.78,0,92.78-140.09,0-140.09
		c-31.13,0-62.57,0-93.7,0v213.95h16.48v-73.86H2206.27z M2206.27,3094.43c71.11,0,71.11,109.88,0,109.88h-77.22v-109.88H2206.27z
		 M2065.56,3293.12v-213.95h-16.18v213.95H2065.56z M1904.72,3293.12h40.29v-213.34h-46.09l-66.84,91.71l-66.84-91.71h-46.39v213.34
		h40.29v-155.1l68.06,92.94h7.93l69.59-92.63V3293.12z M1687.41,3253.44h-119.95v-48.22h115.67v-37.54h-115.67v-49.44h119.95v-39.07
		h-159.93c0,71.32,0,142.84,0,213.95h159.93V3253.44z M1424.02,3116.71c25.33,0,36.62,17.14,36.62,34.34
		c0,17.19-10.99,34.34-36.62,34.34h-61.35v-68.67H1424.02z M1511.61,3290.37l-64.7-72.94c40.59-8.24,54.02-37.85,54.02-67.3
		c0-37.08-26.55-70.66-76.91-70.96c-33.88,0.31-67.76,0-101.63,0v213.95h40.29v-71.42h38.76l62.26,71.42h47.92V3290.37z
		 M1182.9,3111.82c50.36,0,70.5,40.29,69.89,76.3c-0.61,35.1-19.53,72.95-69.89,72.95c-50.36,0-69.28-37.54-70.2-72.64
		C1111.79,3152.42,1132.54,3111.82,1182.9,3111.82z M1182.9,3075.2c-73.86,0-109.88,56.46-109.88,112.62
		c0,56.16,34.79,110.18,109.88,110.18s108.96-55.24,109.57-110.49C1293.08,3131.66,1256.46,3075.2,1182.9,3075.2z M910.35,3079.16
		v213.95h150.16v-37.24H950.64v-176.72H910.35z"/>
</g>
</svg>
